<svg width="1366" height="395" viewBox="0 0 1366 395" fill="none" xmlns="http://www.w3.org/2000/svg">
<path d="M358.337 41.6413C366.625 51.0231 377.536 51.1709 388.927 51.1029C397.942 51.0461 407.853 46.9391 415.746 55.0754C370.438 81.5754 321.108 85.7332 270.16 81.6989C232.561 78.7202 194.962 75.0574 157.138 76.7326C82.7688 71.8214 8.26096 71.6212 -66.178 69.164C-73.8254 68.9138 -81.6959 69.4946 -88.7891 65.5082C-91.9725 63.5479 -92.8441 60.8445 -91.4038 57.3979L358.337 41.6413Z" fill="#FF9100"/>
<path d="M647.588 91.6419C651.029 91.6351 654.468 91.6338 657.904 91.6378C667.857 97.4907 679.479 89.6432 689.442 95.3669L689.395 95.3386C713.865 105.372 734.51 85.132 758.18 86.5675C764.492 86.9542 771.185 83.317 777.633 87.3303C800.908 100.429 826.206 102.675 852.05 99.6336C860.61 98.619 868.876 97.3572 877.371 99.0958C892.19 103.981 906.955 106.86 922.782 102.833C931.281 100.673 940.056 102.35 946.076 110.18C937.011 134.054 915.512 140.854 893.756 143.395C880.414 144.96 869.367 149.068 857.228 153.811C831.723 163.771 804.169 164.821 776.714 166.513C776.783 167.628 780.878 165.691 781.272 167.243C786.567 187.936 806.421 191.839 821.001 202.166C832.173 210.082 845.117 220.725 823.457 232.603C821.942 233.432 819.956 235.067 820.161 236.405C826.386 276.401 789.335 269.916 771.239 282.217C779.704 278.963 787.171 278.542 794.836 288.831C809.2 308.119 818.602 307.03 831.732 287.394C834.141 283.798 835.329 279.538 837.566 275.887C847.317 259.957 861.036 254.285 876.551 266.343C891.743 278.139 904.49 274.516 915.742 263.101C930.762 247.853 944.672 238.83 964.281 256.559C973.126 264.564 982.396 258.204 989.88 251.869C1004.37 239.604 1017.56 241.323 1036.62 245.413C1064.94 251.508 1083.65 263.016 1096.1 287.67C1099.01 293.443 1104.66 293.899 1111.74 293.073C1139.88 289.776 1156.59 300.455 1168.83 329.69C1177.21 349.697 1173.49 366.7 1152.27 377.362C1148.5 379.258 1144.07 382.263 1147.62 387.345C1150.8 391.9 1156.49 394.832 1160.93 390.496C1167.85 383.733 1178.31 378.449 1173.94 365.119C1170.03 353.186 1178.52 347.606 1188.26 344.654C1199.76 341.156 1203.96 349.5 1206.37 358.133C1211.59 376.915 1228.41 394.592 1211.24 415.825C1207.93 419.908 1210.43 431.244 1215.99 430.866C1236.43 429.481 1233.52 446.128 1238.67 456.498C1241.35 461.899 1242.61 469.212 1247.16 472.253C1273.44 489.798 1269.24 518.913 1276.19 543.801C1274.95 546.07 1273.08 547.938 1270.79 549.181C1229.93 554.268 1188.96 558.204 1147.81 560.269C1141.01 560.614 1133.24 558.545 1128.05 563.834C1113.84 578.306 1103.84 569.136 1093.7 558.881C1084.65 551.247 1082.29 539.756 1077.31 529.89C1067.15 509.724 1071.27 503.986 1095.52 502.309C1089.91 496.767 1083.93 495.874 1076.78 499.446C1052.15 511.748 1052.1 511.651 1041.69 486.478C1041.62 494.871 1048.32 502.45 1045.57 511.256C1043.31 518.48 1043.63 527.65 1034.01 529.59C1025.12 531.384 1019.58 525.064 1014.74 518.819C1009.93 512.622 1007.55 504.899 1008.08 497.093C1008.44 489.603 1010.55 481.449 1001.94 475.754C994.123 479.479 998.318 486.081 998.676 491.24C999.424 502.105 995.306 512.138 985.021 513.007C972.829 514.033 975.074 501.833 974.284 493.76C973.957 490.358 974.381 486.878 972.384 483.817C972.787 480.39 966.916 483.226 970.346 482.649C971.354 482.485 971.689 483.271 971.366 485.015C966.558 510.661 958.367 511.922 932.762 490.981C930.91 489.442 929.171 487.801 927.431 486.159C921.461 480.623 913.665 478.449 906.223 476.832C892.012 473.736 882.55 467.219 882.898 450.82C881.306 467.208 866.343 462.845 857.935 468.149C862.364 470.273 866.472 471.743 869.839 474.496C876.418 479.867 891.593 480.886 884.331 493.917C878.6 504.199 868.305 513.563 854.328 508.596C838.477 502.962 813.33 504.514 824.854 474.127C827.969 465.939 818.103 461.886 811.089 464.06C793.582 469.507 788.115 458.564 781.949 446.338C775.642 433.821 767.984 422.065 750.909 424.867C756.417 428.809 769.655 424.97 768.563 435.915C767.524 446.349 756.574 446.916 747.954 446.563C736.839 446.15 726.042 442.794 716.689 436.843C720.406 447.361 726.584 461.472 713.44 463.794C698.034 466.514 679.266 481.111 666.15 463.459C669.258 470.829 675.649 475.446 688.264 471.356C705.778 465.673 707.057 476.512 705.747 489.11C718.29 473.774 735.933 465.168 756.374 463.456C766.905 462.57 777.663 465.135 780.337 478.297C783.045 491.594 775.241 495.531 763.915 499.583C755.055 502.759 737.226 500.817 739.079 512.21C741.201 525.212 759.2 525.479 770.251 523.773C790.459 520.669 807.817 527.632 825.928 533.063C834.203 535.547 842.132 539.548 851.157 538.667C908.01 533.126 963.81 541.569 1019.47 551.209C1043.28 555.331 1068.04 544.682 1091.25 556.135C1094.71 568.334 1099.48 575.851 1115.69 574.561C1133.36 573.151 1151.18 579.854 1169.39 579.444C1175.43 579.308 1181.73 581.284 1183.58 588.212C1185.36 594.853 1180.59 599.064 1176.79 603.802C1164.99 618.474 1143.69 610.411 1131.13 622.914C1139.87 621.14 1148.4 614.108 1157.52 621.898C1148.56 636.151 1134.15 637.819 1119.14 638.36C1053.64 640.693 988.14 643.066 922.648 645.48C921.976 631.579 933.508 634.284 940.929 633.415C957.345 631.67 973.859 631 990.363 631.41C1002.62 631.596 1011.76 625.264 1021.56 620.003C1026.15 617.539 1025.87 612.921 1024.54 608.612C1023.02 603.627 1018.8 601.311 1014.5 603.537C999.34 611.395 994.427 601.618 989.99 590.48C987.319 583.771 984.518 583.17 975.805 582.95C955.909 582.462 934.801 588.142 915.745 578.305C906.787 573.679 900.863 576.448 895.754 583.589C890.35 591.385 882.954 597.623 874.32 601.669C859.328 608.738 845.191 620.231 840.595 591.442C838.883 580.722 828.477 579.562 817.4 581.645C798.338 585.239 778.738 592.75 759.88 580.035C756.033 577.441 750.832 577.639 747.802 581.028C736.603 593.551 731.176 594.052 718.847 578.728C711.049 569.037 688.585 574.157 672.828 575.613C665.961 576.253 657.51 576.226 657.703 570.747C658.793 540.049 627.751 539.1 613.429 522.965C605.391 513.897 590.822 510.681 586.678 496.723C585.363 492.323 581.38 489.992 576.529 490.322C571.617 490.646 566.672 494.429 567.676 498.081C575.494 526.339 552.117 543.802 544.421 566.592C539.609 584.029 521.976 586.509 509.648 594.875C503.323 599.163 496.431 594.502 492.481 587.861C487.919 580.207 487.847 571.796 495.669 567.464C511.244 558.839 517.553 544.451 523.72 529.52C495.674 522.018 495.914 522.066 501.006 493.561C503.305 480.674 497.181 471.403 484.602 468.439C471.343 465.316 457.801 462.029 444.29 469.715C436.977 473.878 428.575 477.417 419.671 472.751C412.106 462.702 409.32 450.829 409.058 438.853C408.723 423.999 412.727 410.915 431.912 411.292C445.071 411.553 453.561 405.044 457.408 393.291C461.584 380.482 473.059 373.004 479.089 361.408C490.136 340.173 503.931 321.859 533.713 335.416C514.568 319.754 504.237 319.515 495.475 335.601C489.087 347.309 482.729 356.561 468.089 353.509C459.864 351.791 446.407 321.13 447.538 311.295C448.718 301.122 468.604 291.684 450.368 280.93C430.657 269.301 411.468 253.001 385.53 265.128C380.815 267.331 376.057 269.435 371.316 271.57C355.784 278.575 347.254 272.778 347.628 256.682C347.903 245.029 346.376 232.481 354.692 221.108C364.059 220.347 368.155 230.677 376.699 232.064C385.259 233.444 392.877 234.956 392.976 222.852C393.066 211.616 399.564 203.947 409.511 202.633C423.519 200.782 433.098 198.858 434.5 181.207C435.271 171.528 445.441 176.773 450.996 180.659C464.003 189.741 461.775 202.64 459.637 215.729C456.796 233.088 444.053 234.166 430.253 234.056C448.094 257.228 450.666 257.426 460.972 233.701C465.138 224.116 471.474 223.423 479.702 224.989C491.849 227.293 503.277 232.049 512.602 239.807C527.073 251.848 536.315 269.856 554.437 273.014C552.785 269.272 550.65 260.522 540.575 261.249C529.802 262.025 529.521 255.327 529.326 248.267C529.356 245.711 528.784 243.183 527.656 240.883C526.527 238.584 524.873 236.577 522.825 235.02C515.347 228.894 497.935 219.597 505.686 214.575C518.016 206.603 517.792 181.257 540.893 188.388C548.899 190.866 548.203 183.693 548.625 178.734C549.216 171.934 547.316 165.047 549.61 157.077C548.56 161.643 549.946 156.579 549.873 156.923C545.143 179.547 539.022 187.674 529.416 159.023C527.245 152.547 529.16 145.374 530.273 138.563C532.842 122.839 522.677 116.438 509.918 113.792C493.576 110.397 498.391 124.377 495.871 132.274C493.096 140.967 492.258 153.689 479.018 150.216C468.521 147.46 462.512 137.753 464.111 125.932C469.891 83.0679 496.261 73.2594 537.872 82.2523C572.894 89.82 610.523 94.1762 647.588 91.6419Z" fill="#FF9100"/>
<path d="M644.962 93.5642C634.021 104.321 620.263 95.9598 608.112 97.4068C600.801 98.2801 592.519 101.454 586.714 100.449C578.484 99.0369 569.685 93.7439 561.865 88.1436C555.299 83.4455 550.566 88.0063 542.051 104.306C529.409 84.9697 517.119 79.1739 499.899 83.1249C492.557 84.8145 487.414 87.4012 484.779 95.0102C482.013 103.028 479.472 111.807 474.281 118.173C463.028 131.979 468.853 140.602 481.981 149.511C487.557 139.78 491.954 130.936 487.93 118.868C484.62 108.969 490.06 104.262 500.435 106.687C511.117 109.184 522.262 109.73 530.533 119.25C536.437 126.058 541.933 130.313 535.431 140.799C529.533 150.308 533.238 161.681 535.97 175.746C546.389 166.63 542.663 154.621 550.853 149.056C555.324 146.021 560.112 141.824 563.926 147.616C567.972 153.75 560.437 153.252 557.442 154.957C550.333 158.999 548.334 164.743 550.862 172.354C552.205 176.408 553.956 180.44 554.537 184.617C555.479 191.523 555.972 199.296 548.504 202.841C540.818 206.492 539.328 197.031 534.447 194.437C533.02 193.672 531.255 193.544 529.25 193.028C520.4 198.029 533.178 206.893 525.536 213.34C519.222 218.672 512.272 213.874 505.728 217.72C514.413 228.218 526.779 232.497 537.212 238.331C538.638 246.202 528.412 250.414 533.043 258.036C547.359 248.159 547.268 248.192 552.93 261.977C557.476 273.044 561.479 284.053 555.66 295.75C547.863 295.901 548.358 290.827 549.306 287.023C551.177 279.532 548.645 274.221 541.383 274.117C528.924 273.944 525.398 265.896 518.921 257.105C506.999 240.942 487.975 233.825 466.714 230.876C463.919 241.545 467.151 253.13 460.845 263.572C436.901 263.81 424.978 248.058 414.674 228.533C427.53 226.133 443.639 239.636 451.587 222.16C459.918 203.848 455.701 194.369 438.304 182.762C429.79 194.302 444.544 205.209 438.835 219.217C428.838 209.506 418.667 202.65 405.462 211.399C398.905 215.748 393.858 219.749 400.018 227.545C406.785 236.11 401.394 238.273 394.478 242.443C385.207 248.038 378.731 237.1 370.507 240.396C358.07 245.386 361.796 231.082 356.22 226.293C352.92 238.868 356.189 249.965 352.997 261.052C350.309 270.407 356.466 272.674 366.723 268.911C380.351 263.909 391.134 251.765 408.703 256.32C430.071 261.873 447.32 274.221 465.475 285.253C466.641 285.905 467.615 286.851 468.301 287.998C468.987 289.144 469.36 290.45 469.383 291.786C469.406 293.122 469.078 294.44 468.432 295.609C467.786 296.778 466.844 297.757 465.701 298.449C444.919 312.017 448.718 325.441 464.594 339.683C465.655 340.628 465.962 342.871 465.928 344.495C465.588 358.262 473.188 351.887 479.074 349.724C487.895 346.49 487.565 337.507 490.841 330.807C497.265 317.65 505.326 314.039 524.649 318.434C535.74 320.955 539.081 332.11 542.902 341.169C544.306 344.521 539.913 349.766 534.631 347.247C523.16 341.785 510.044 334.806 499.461 342.622C490.619 349.154 486.233 361.905 480.498 372.357C473.182 385.698 463.295 398.077 455.53 411.64C451.605 418.503 444.629 421.771 435.851 421.66C416.87 421.419 410.715 428.527 414.663 446.668C416.66 455.844 420.735 464.559 420.085 474.261C434.999 488.659 410.191 505.915 416.633 510.307C432.722 521.282 430.38 534.213 429.071 548.165C427.98 559.848 423.852 570.053 408.92 569.069C388.24 567.707 395.335 580.222 398.205 590.617C399.135 598.452 399.751 606.183 391.501 610.989C384.324 610.906 380.257 605.671 375.599 601.417C368.005 595.324 366.1 568.353 349.628 594.68C346.218 600.131 339.289 601.311 333.456 598.064C326.177 594.019 326.302 587.135 328.805 580.093C329.373 578.489 330.535 577.085 331.035 575.491C333.391 567.968 348.275 559.754 334.676 553.117C322.395 547.126 318.675 562.032 313.409 570.213C309.387 576.47 310.309 583.231 312.458 590.018C314.565 596.685 316.347 603.964 309.34 608.632C302.754 613.028 296.073 609.66 290.127 606.091C282.853 601.731 276.989 595.005 268.162 593.288C246.104 578.235 221.886 566.303 202.138 547.864C197.346 542.388 192.51 536.937 188.704 530.695C169.711 511.041 145.177 502.434 119.602 495.889C101.196 489.443 91.4174 470.952 71.9725 464.199C57.7012 459.231 63.4313 442.808 71.2622 429.365C51.0905 430.559 34.4724 427.954 19.232 440.259C2.19677 454.009 3.47295 428.054 -7.38842 426.058C-9.32714 435.728 0.574873 450.311 -14.2302 454.257C-25.4509 457.251 -25.9635 441.737 -33.3864 436.39C-23.7827 448.339 -17.5218 461.6 -17.8502 477.293C-17.9559 482.841 -19.3843 488.063 -25.1763 489.47C-32.1237 491.16 -34.1992 484.965 -35.0008 480.271C-37.8939 463.357 -49.5197 453.473 -62.4071 444.523C-75.5686 435.373 -76.7033 414.948 -97.1221 411.031C-103.785 409.756 -108.586 394.045 -97.3112 384.991C-95.1794 384.086 -93.8861 380.575 -90.6867 382.793C-95.2444 379.861 -96.3244 385.778 -99.5596 386.28C-107.663 390.197 -112.934 396.497 -116.567 404.728C-119.686 411.814 -124.703 415.987 -132.647 410.104C-135.92 388.414 -133.193 369.285 -110.851 358.457C-63.6288 351.783 -25.4239 376.629 11.9191 395.999C22.9477 390.579 4.95124 368.642 28.0895 375.067C30.3813 375.703 33.3324 377.115 30.8988 373.742C21.8693 361.226 33.5351 340.962 13.3203 331.99C2.513 327.197 7.53706 313.434 5.86692 303.591C5.28338 300.044 4.98707 296.456 4.98086 292.861C4.91962 290.457 5.05701 288.068 5.20932 285.678C2.6566 263.463 4.93053 242.291 18.5622 223.551C22.3089 218.75 26.5274 214.369 30.6269 209.876C37.6934 203.307 43.3379 194.434 54.6933 194.629C58.013 195.516 61.0673 197.197 63.5929 199.527C78.7518 212.53 82.4222 203.924 82.7384 189.283C82.7613 183.267 82.3268 177.258 81.4385 171.308C69.9067 149.975 74.8759 123.541 59.8785 103.099C55.1672 96.6687 60.4551 92.6065 66.4462 89.487C84.7522 79.9766 115.465 89.9521 125.157 109.665C129.077 117.624 131.887 126.984 142.661 124.269C153.381 121.571 156.037 111.736 155.257 101.761C154.4 90.7785 150.869 79.7747 157.449 69.3459C196.714 67.4751 235.638 71.7777 274.721 74.5063C303.61 76.5099 332.857 73.4828 361.934 72.5931C364.437 72.5204 368.709 72.2557 369.138 71.0234C377.973 45.6822 399.968 59.4799 415.746 55.0752C417.4 55.2228 419.065 55.218 420.718 55.0611C425.128 59.6136 431.989 55.2373 436.506 59.3971C502.51 66.8558 566.893 85.0198 633.409 89.0488C637.837 89.3118 641.836 90.1929 644.962 93.5642Z" fill="#FF9100"/>
<path d="M1266.33 548.117C1265.9 543.753 1264.97 539.405 1261.47 536.52C1252.52 529.141 1248.39 521.32 1255.47 509.952C1260.47 501.925 1258.65 498.051 1248.16 493.636C1231.43 486.59 1228 467.769 1221.81 452.205C1220.05 447.789 1223.03 441.576 1217 438.924C1208.82 437.626 1212.96 450.779 1204.25 448.943C1197.21 442.889 1202.74 432.264 1196.23 425.698C1188.83 418.22 1189.49 413.108 1200.48 409.38C1208.42 406.681 1209.61 400.104 1205.28 392.594C1197.96 379.902 1194.04 365.836 1190.09 351.884C1166.56 358.071 1166.56 358.071 1181.32 381.567C1174.61 387.423 1159.86 386.043 1161.46 400.785C1161.82 404.073 1157.39 405.361 1153.48 404.622C1139.89 402.059 1128.85 396.983 1128.16 380.832C1132.94 374.693 1140.97 377.017 1146.81 372.958C1159.56 364.11 1164.6 346.996 1156.33 333.63C1150.48 324.121 1143.96 315.042 1136.82 306.461C1129.23 297.397 1117 296.053 1105.97 303.97C1100.47 307.918 1097.62 307.827 1092.9 303.986C1084.62 297.223 1080.45 287.765 1074.87 279.112C1068.02 268.476 1063.84 253.475 1044.37 261.224C1039.98 262.962 1026.88 258.92 1023.51 254.753C1009.6 237.48 1000.48 253.001 989.911 257.731C986.965 259.052 985.037 262.533 982.403 264.726C972.731 272.78 964.28 274.821 953.438 264.469C936.608 248.417 935.233 248.74 919.906 266.482C912.66 274.87 903.685 278.277 894.358 282.694C884.498 287.35 878.731 284.246 871.792 277.506C856.007 262.171 845.497 264.779 837.784 286.565C833.757 297.933 823.691 303.456 816.973 312.077C811.703 318.842 786.787 310.271 785.499 299.15C783.173 279.079 774.427 287.481 765.303 291.381C762.218 292.689 759.148 295.039 755.626 292.976C752.523 291.165 750.23 288.306 750.695 284.626C750.981 282.377 753.391 278.34 753.846 278.468C771.155 283.612 782.184 270.134 795.943 264.846C800.55 263.07 806.078 263.69 811.233 263.21C815.189 253.749 795.682 249.573 806.58 238.681C812.668 232.589 812.289 218.367 831.1 228.98C806.364 199.23 804.827 198.514 775.491 200.521C772.26 191.549 781.048 184.805 780.727 176.957C776.057 168.636 764.325 182.467 761.7 170.168C760.698 165.489 755.843 160.602 760.899 155.854C766.627 150.46 769.853 155.335 773.038 159.53C777.326 165.168 782.219 164.837 788.935 163.268C804.412 159.656 819.094 150.871 836.436 157.286C844.399 160.229 849.596 150.523 856.106 146.78C863.491 142.538 870.093 134.271 879.103 138.388C893.585 145.001 903.947 137.107 914.946 130.819C923.742 125.789 932.074 119.938 940.61 114.451C945.026 110.702 1011.54 81.1215 1017.43 80.2828C1046.41 88.9248 1074.94 81.5428 1103.59 77.9645C1108.87 77.3072 1114.05 76.1816 1117.31 71.8824C1136.22 46.9855 1164.54 46.5223 1191.54 43.882C1211.98 41.8866 1232.66 42.3504 1253.24 41.7204C1256.47 44.235 1261.21 43.1625 1264.16 46.3389L1264.09 46.3113C1288.76 59.7123 1315.02 64.4124 1342.98 62.2606C1355.45 61.3056 1368.66 59.1446 1379.96 67.7356C1388.16 79.1922 1387.6 91.7935 1384.78 104.657C1376.5 121.215 1360.9 113.296 1348.25 115.145C1353.73 158.463 1347.14 162.069 1289.38 144.687C1311.01 173.198 1285.42 186.501 1273.06 203.011C1265.08 213.688 1252.98 211.072 1243.62 201.934C1236.23 194.706 1229.61 186.735 1218.52 184.869C1211.12 183.628 1203.94 174.062 1197.17 179.562C1189 186.2 1192.21 197.641 1194.68 206.383C1199.05 221.797 1203.08 236.21 1223.5 241.581C1254.42 249.706 1268.87 285.887 1253.47 314.141C1243.22 332.954 1249.62 334.953 1267.06 336.628C1292.93 339.11 1321.78 384.878 1315.31 408.631C1313.06 416.928 1323.03 418.84 1327.52 423.367C1356.54 452.579 1390.24 476.714 1418.53 506.827C1419.7 509.217 1420.56 511.75 1421.07 514.362C1424.77 537.537 1412.7 548.639 1391.42 549.978C1365.81 551.603 1340.34 555.048 1315.22 560.288C1297.49 563.956 1281.92 555.11 1266.33 548.117Z" fill="#FF9100"/>
<path d="M1337.68 509.471C1320.74 498.077 1293.73 494.675 1285.73 476.018C1284.84 473.934 1279.59 471.416 1276.44 471.533C1250.28 472.483 1236.65 465.534 1233.53 445.552C1232.23 437.264 1217.69 429.209 1204.51 427.495C1183.94 424.82 1181.65 404.455 1157.99 405.376C1155.47 405.473 1156.09 398.303 1161.36 396.028C1168.23 393.066 1176.92 400.934 1185.17 392.626C1174.45 384.761 1156.67 378.679 1165.06 362.912C1167.96 357.462 1157.95 353.249 1151.2 350.291C1143.29 346.823 1133.05 344.877 1130.29 337.835C1125.32 325.112 1113.6 323.842 1099.22 328.542C1080.06 334.801 1072.02 325.776 1063.86 316.926C1059.18 311.853 1059.5 308.668 1068.09 303.215C1089.96 289.342 1096.88 270.696 1083.3 252.081C1070.57 234.657 1057.28 215.204 1020.53 220.987C1014.71 221.908 1008.81 221.518 1006.63 217.679C993.19 194.129 977.526 170.913 984.105 143.859C986.699 133.225 997.19 131.569 1008.19 133.964C1024.87 137.585 1035.72 152.678 1058.78 145.635C1060.67 145.057 1068.64 157.863 1075.81 163.02C1083.56 168.582 1091.3 179.009 1105.39 171.879C1114.06 167.489 1132.84 164.852 1119.85 150.584C1114.29 144.475 1125.88 140.598 1134.34 141.708C1160.07 145.089 1154.89 135.7 1148.13 125.795C1141.78 116.472 1134.33 107.495 1134.16 96.5973C1142.47 90.7051 1150.55 93.8735 1155.31 97.9972C1168.5 109.418 1191.59 100.974 1206.79 112.478C1215.69 119.203 1232.04 107.532 1234.01 94.5229C1235.88 82.2165 1220.82 73.8391 1221.89 59.0097C1243.73 64.9498 1267.43 66.8755 1290.84 64.6127C1307.32 71.2433 1320.64 61.2743 1335.33 59.5142C1339.39 59.26 1347.96 63.1572 1343.67 54.7186C1347.64 39.9668 1365.14 32.2658 1377.26 21.7922C1400.78 30.1039 1383.49 43.4706 1383.37 52.2096C1427.61 72.5304 1469.21 90.3682 1479.96 130.783C1487.45 158.917 1511.61 182.919 1529.62 208.297C1533.19 213.325 1539.45 217.343 1540.08 223.464C1528.7 245.426 1530.44 270.445 1507.78 289.782C1495.2 288.5 1489.69 294.374 1485.24 301.303C1483.96 302.19 1482.36 302.792 1480.62 303.032C1478.89 303.272 1477.11 303.14 1475.51 302.652C1469.13 300.683 1459.95 294.975 1459.81 305.735C1459.67 316.974 1463.92 328.145 1459.8 339.532C1454.66 351.321 1458.28 365.568 1440.13 373.684C1417.06 374.868 1426.21 354.8 1408.71 350.175C1388.71 371.979 1370.3 393.71 1377 421.574C1379.47 431.844 1378.71 442.532 1378.27 453.066C1378.03 458.841 1376.53 469.173 1373 469.046C1325 467.384 1357.13 499.637 1337.68 509.471Z" fill="#FF9100"/>
<path d="M-168.479 220.578C-169.757 211.049 -167.666 202.027 -164.668 193.057C-163.061 188.263 -159.653 181.434 -161.58 178.569C-168.844 167.765 -169.501 159.449 -158.086 151.364C-155.522 149.546 -155.592 144.94 -157.498 141.841C-159.42 138.718 -163.089 137.018 -166.272 138.782C-184.449 148.863 -190.202 134.654 -196.92 123.1C-199.012 119.502 -199.668 115.094 -203.725 112.798C-199.571 105.92 -199.33 98.3555 -198.769 90.5451C-197.467 72.5024 -194.883 71.0336 -175.993 74.3697C-173.456 74.8219 -170.926 75.2924 -168.396 75.7639C-145.201 87.168 -144.963 92.2388 -166.29 118.067C-148.845 107.311 -127.658 122.273 -110.055 108.176C-105.729 104.711 -99.2871 111.399 -95.4162 116.026C-88.8582 123.862 -81.8282 131.041 -71.5993 135.854C-69.3464 127.755 -68.0622 118.989 -58.3098 116.484C-28.9378 112.896 -23.2692 117.1 -18.95 145.6C-26.9322 156.009 -46.2079 156.029 -45.0201 175.371C-44.4125 185.319 -39.4598 183.851 -33.2991 182.546C-27.518 180.371 -23.2246 175.758 -17.7658 173.32C-10.6496 170.138 -2.3035 160.98 3.74603 173.518C8.59055 183.551 3.7871 192.077 -5.72342 197.148C-14.052 201.583 -23.9259 202.363 -31.9923 207.571C-51.8884 213.805 -72.8761 212.552 -87.5099 199.204C-106.093 182.251 -120.831 193.341 -128.026 205.109C-139.052 223.118 -152.855 221.312 -168.479 220.578Z" fill="#FF9100"/>
<path d="M1017.44 80.2789C1015.81 80.6711 1014.19 81.1537 1012.53 81.4329C998.882 83.7116 1002.97 109.331 981.231 103.359C967.474 99.5843 954.693 112.172 940.61 114.448C931.315 109.572 921.277 107.394 911.77 112.13C894.944 120.522 883.238 113.8 872.801 101.12C886.801 94.2008 902.312 92.6752 917.276 90.1405C928.488 88.2393 939.349 88.4459 945.962 77.0177C948.246 73.0688 953.26 71.6138 957.357 72.4905C977.191 76.7388 997.993 73.3293 1017.44 80.2789Z" fill="#FF9100"/>
<path d="M1379.18 68.283C1351.9 66.9463 1324.74 73.237 1297.17 67.5086C1282.44 64.4446 1271.7 58.7515 1264.1 46.306C1294.1 38.6443 1324.2 35.8536 1354.84 43.005C1362.51 44.8007 1368.92 54.4314 1378.23 47.3564C1383.94 52.4497 1384.1 58.6054 1381.7 65.278C1380.87 66.2814 1380.03 67.2781 1379.18 68.283Z" fill="#FF9100"/>
<path d="M773.906 89.2898C754.112 101.004 729.563 91.8566 709.357 104.43C703.244 108.231 692.877 103.834 686.418 97.2831C698.265 97.4161 709.048 93.8707 720.387 90.4647C737.43 85.3356 755.865 73.0371 773.906 89.2898Z" fill="#FF9100"/>
<path d="M686.464 97.3122C675.999 96.4376 664.729 102.175 655.191 93.5638C665.687 94.2393 676.912 88.8619 686.464 97.3122Z" fill="#FF9100"/>
<path d="M436.507 59.3975C430.767 59.6826 424.866 60.5746 420.719 55.0615C426.407 54.9533 432.443 53.5916 436.507 59.3975Z" fill="#FF9100"/>
<path d="M1264.17 46.3332C1259.87 46.3547 1256.05 45.2464 1253.25 41.7145C1257.77 41.1873 1261.74 41.9162 1264.17 46.3332Z" fill="#FF9100"/>
<path d="M-58.0141 123.471C-61.4166 121.138 -64.8189 118.808 -68.2061 116.456C-74.4901 112.099 -87.1669 121.781 -88.6799 108.371C-89.9599 97.0451 -91.2077 84.7541 -80.7246 75.8679C-78.8381 74.2704 -76.992 72.6364 -73.2813 69.4057C-81.1737 65.2192 -91.1936 70.7414 -96.3509 63.0853C-94.5935 62.8104 -92.8338 62.533 -91.0718 62.2532C-8.15905 62.083 74.711 63.5466 157.456 69.3496C161.923 80.3356 159.553 92.2613 162.815 103.831C166.215 115.882 156.188 126.409 147.393 134.089C140.61 140.028 119.074 127.487 119.025 115.669C118.973 103.736 114.44 101.535 105.124 100.84C103.414 100.566 101.856 99.6946 100.727 98.3812C92.1375 88.6289 83.0636 86.8063 72.2708 95.2773C70.2402 96.8718 65.6864 93.4215 63.0773 97.6328C62.9697 105.638 70.1118 102.543 74.1683 103.985C78.9806 105.705 82.6194 110.414 80.0198 113.382C66.1796 129.198 80.5217 141.841 83.7402 155.651C84.895 160.577 86.9043 165.312 88.5274 170.13C71.8437 173.273 65.8088 160.781 58.6562 149.905C53.7175 142.408 47.1892 136.932 38.5025 134.228C21.3238 129.552 11.9684 141.989 1.15633 151.279C-7.13189 156.436 -15.1036 159.55 -20.6203 147.747C-27.5877 137.789 -25.5971 120.693 -43.9798 119.677C-49.5407 119.374 -53.4793 121.751 -58.0141 123.471Z" fill="#FF9100"/>
<path d="M-168.479 220.579C-160.862 217.136 -155.342 205.13 -144.442 214.923C-142.532 216.639 -139.045 216.144 -139.348 212.933C-141.741 188.104 -112.625 195.066 -105.613 179.465C-104.426 176.823 -98.3797 178.1 -96.7896 181.091C-82.9135 207.155 -57.4307 203.017 -34.4786 205.526C-22.2463 214.45 -12.3722 230.006 6.69939 216.338C11.9967 212.542 20.1192 216.332 23.1679 224.238C11.5416 243.549 9.48228 264.907 9.80641 286.778C8.52219 287.95 8.09862 289.107 8.54999 290.257C9.00136 291.406 9.4407 291.985 9.87427 291.97C10.0254 295.407 10.1738 298.844 10.3196 302.281C13.6456 321.989 -5.53073 326.642 -15.3944 332.025C-26.1032 337.868 -27.1293 320.113 -33.2083 310.73C-35.8828 316.787 -41.7165 319.83 -47.3653 317.303C-74.6648 305.046 -81.9069 327.015 -89.5534 343.61C-93.7437 352.706 -97.2732 359.768 -106.588 363.262C-119.453 364.071 -122.536 374.361 -125.41 383.861C-128.044 392.575 -128.97 401.8 -130.65 410.793C-110.75 431.87 -90.3509 452.603 -81.861 481.551C-73.6186 497.896 -62.1634 511.188 -43.7883 515.67C-21.2261 521.181 -9.19881 534.931 -6.26093 557.691C-5.62656 562.551 -2.79289 567.12 -0.975408 571.832C-2.29978 583.592 -9.06917 581.027 -16.1579 577.596C-18.0284 566.374 -21.1477 557.566 -36.0462 562.101C-40.4007 563.427 -46.2301 559.257 -51.0017 560.013C-61.6667 561.681 -73.9038 562.186 -73.3153 578.524C-72.6776 596.072 -88.7063 596.612 -98.3692 603.386C-100.474 601.586 -102.855 600.142 -102.667 599.629C-95.669 580.45 -107.184 571.973 -121.952 564.616C-129.672 560.766 -136.533 554.924 -140.135 546.898C-141.961 542.826 -144.488 536.86 -137.626 533.725C-134.507 532.305 -126.976 534.7 -130.744 527.467C-132.753 523.6 -141.011 523.958 -142.061 526.623C-145.404 535.118 -167.527 531.704 -156.921 549.641C-156.444 550.447 -169.396 559.202 -176.786 564.778C-187.647 551.685 -181.007 536.479 -182.909 521.755C-197.333 524.156 -195.32 534.423 -195.305 543.324C-195.287 558.122 -203.587 548.451 -208.75 548.022C-209.173 541.175 -208.575 534.132 -211.964 527.807C-220.405 512.096 -208.711 501.745 -201.461 490.744C-197.282 484.396 -189.776 484.044 -182.924 487.68C-180.713 488.852 -179.231 491.352 -177.075 492.661C-152.989 507.321 -139.812 501.074 -139.399 473.085C-139.183 458.363 -132.623 444.531 -135.206 429.694C-136.209 423.91 -133.818 415.411 -139.884 413.224C-160.629 405.757 -159.372 381.661 -174.281 370.081C-178.36 366.911 -177.21 362.804 -174.504 358.74C-165.264 344.852 -155.76 331.305 -152.779 314.049C-151.282 305.395 -136.638 304.977 -130.283 313.124C-127.947 316.119 -129.521 321.414 -125.557 324.116C-109.737 307.636 -109.745 307.636 -122.1 293.431C-125.203 289.869 -124.583 285.391 -125.066 281.181C-115.585 278.975 -102.789 286.102 -98.5138 269.512C-96.5834 262.004 -89.1569 262.683 -84.8214 269.207C-77.3673 280.439 -71.9898 273.51 -67.5445 267.125C-60.6711 257.242 -70.0486 255.004 -75.9329 254.007C-88.4095 251.9 -85.5114 239.521 -92.4204 230.144C-98.1196 256.611 -114.216 271.288 -135.292 281.448C-140.853 278.155 -143.937 271.218 -151.973 271.408C-158.106 271.555 -162.556 267.141 -158.279 261.843C-147.937 248.998 -154.236 240.513 -163.85 231.962C-167.155 229.016 -168.067 224.836 -168.479 220.579Z" fill="#FF9100"/>
<path d="M-81.8558 481.55C-82.6151 481.176 -83.725 481.015 -84.0965 480.402C-98.6042 456.524 -120.077 437.299 -130.645 410.792C-126.388 409.903 -121.189 408.305 -121.62 403.629C-123.574 382.514 -109.35 383.526 -95.5081 383.62L-95.5084 383.612C-102.353 394.347 -96.2798 403.105 -91.4577 412.068C-82.6726 413.901 -77.4115 405.819 -69.7706 404.995C-69.0348 406.211 -67.4066 408.119 -67.713 408.51C-76.7578 420.136 -72.6421 429.124 -62.3138 437.003C-60.944 438.044 -59.8203 439.482 -58.3447 440.292C-40.3154 450.118 -27.9531 463.866 -27.6313 486.155C-17.0541 457.856 -36.119 441.281 -53.5558 422.813C-38.4504 423.641 -38.4504 423.641 -14.4104 451.464C-5.29724 437.877 -20.0821 427.184 -17.3975 413.168C-4.95823 419.746 12.2584 418.998 9.01297 443.529C31.3544 414.049 57.9908 423.253 83.1264 424.847C86.5716 435.366 78.1917 435.964 73.9894 438.838C66.4103 444.024 67.0555 449.622 70.8397 456.542C74.6245 463.477 78.2846 464.683 84.6763 458.868C89.8577 454.162 95.719 457.33 95.4724 463.34C94.9314 476.588 99.4653 482.325 113.169 481.725C122.523 481.313 119.474 489.966 120.745 495.244C129.734 504.869 131.915 516.689 131.74 529.292C130.587 535.06 127.921 539.628 121.948 541.555C113.894 545.577 110.232 543.221 113.078 534.486C115.12 528.213 116.657 521.848 109.845 518.926C102.453 515.757 97.0173 502.124 93.3113 505.689C84.5136 514.146 72.1827 502.811 65.3901 513.513C63.7884 516.045 58.0773 518.05 57.5888 513.528C55.6848 496.123 45.3324 503.432 37.3597 506.347C29.802 509.117 24.2268 507.348 18.5666 502.527C16.047 500.384 11.4295 496.86 10.1557 497.674C-7.89123 509.296 -2.14313 493.131 -3.92741 485.912C-4.53095 483.474 -4.98274 480.999 -5.81256 477.098C-7.64761 480.363 -8.97206 482.357 -9.93965 484.516C-14.0872 493.748 -20.2341 501.328 -31.1382 499.653C-42.5553 497.898 -44.6705 487.744 -45.4473 478.19C-46.3715 466.798 -51.2169 459.367 -62.8963 456.234C-63.4034 480.644 -63.7242 481.052 -81.8558 481.55Z" fill="#FF9100"/>
<path d="M-106.578 363.262C-103.481 359.285 -97.1332 354.614 -97.7999 351.431C-102.317 330.104 -82.5792 323.372 -74.1704 310.039C-68.3901 300.872 -60.1115 300.209 -52.9931 308.197C-42.5765 319.88 -38.1584 310.747 -33.0901 302.815C-25.278 310.591 -23.0265 320.924 -16.5739 331.208C-14.0492 321.76 -14.6156 310.789 -0.293723 314.377C7.24423 316.268 7.24504 306.87 10.3261 302.283C11.6391 304.332 14.1649 306.422 14.0826 308.412C13.1917 330.148 13.0798 330.237 33.4774 329.409C37.1509 329.257 40.5062 328.956 41.4001 333.373C42.1364 337.003 41.2042 341.057 36.9736 340.954C24.5717 340.665 25.7132 347.868 31.3069 353.361C42.0022 363.862 35.9815 373.761 32.6763 384.196C26.6287 385.474 29.0945 374.119 22.0037 376.968C21.3834 378.39 19.8765 380.173 20.2789 381.21C22.7481 387.567 25.9615 393.638 28.2128 400.056C28.8987 402.019 27.9755 405.243 26.6449 407.034C26.2425 407.534 25.7412 407.945 25.1723 408.242C24.6035 408.538 23.9794 408.714 23.3394 408.758C22.6993 408.802 22.0572 408.713 21.4532 408.497C20.8492 408.28 20.2965 407.941 19.8297 407.501C7.157 394.487 -14.2799 398.681 -26.2033 382.046C-33.3146 372.12 -49.3466 372.765 -61.0891 368.402C-74.9799 363.244 -91.3112 364.685 -106.578 363.262Z" fill="#FF9100"/>
<path d="M23.1739 224.237C15.305 220.065 7.887 218.542 -0.686945 223.824C-5.03302 226.505 -7.28783 235.404 -15.1101 230.621C-21.5079 226.702 -28.6188 223.523 -30.0209 214.593C-30.5135 211.41 -32.9338 208.534 -34.4745 205.526C-33.4139 192.747 -23.3665 195.206 -15.4046 194.409C-2.56254 193.129 2.40252 186.389 -0.598177 172.485C-14.6378 173.7 -21.4182 189.178 -35.0661 189.953C-37.0883 159.841 -36.4264 158.95 -9.45849 155.233C-4.68033 154.578 -1.92421 151.595 -0.369675 147.26C16.7862 125.906 21.0142 124.165 40.5492 130.404C70.179 153.106 71.0564 170.097 41.4992 188.924C30.1833 196.137 35.6946 205.418 33.3185 213.681C31.3261 218.312 27.7217 222.062 23.1739 224.237Z" fill="#FF9100"/>
<path d="M61.9624 145.117C68.5019 155.908 76.7156 164.927 88.5207 170.134C88.8436 179.559 89.1611 188.983 89.4732 198.407C89.7026 205.612 88.5916 212.383 80.9772 215.475C73.1529 218.659 67.9729 213.639 63.1333 208.629C59.6165 204.974 56.4454 200.995 53.1203 197.159C54.5481 179.558 61.2321 162.842 61.9624 145.117Z" fill="#FF9100"/>
<path d="M61.9626 145.117C63.3504 163.202 63.9414 181.156 53.1236 197.163C46.5148 202.662 39.9115 208.169 33.3138 213.684C32.1068 212.492 30.1137 211.473 29.8059 210.083C28.0108 201.898 26.6019 193.63 24.737 183.654C37.2558 183.825 49.9659 186.171 54.9656 171.057C59.6494 156.917 56.2849 145.905 44.9647 136.692C43.0518 135.137 41.993 132.523 40.5434 130.404C51.242 130.123 56.796 137.339 61.9626 145.117Z" fill="#FF9100"/>
<path d="M471.732 161.065C476.688 172.742 480.729 183.964 494.047 173.902C497.208 171.513 500.506 173.69 501.803 177.431C503.027 180.968 501.691 184.243 499.476 186.88C495.075 192.122 489.391 192.935 483.377 190.194C476.93 187.244 467.301 188.298 466.827 177.453C466.633 173.205 466.107 168.977 471.732 161.065Z" fill="#FF9100"/>
<path d="M9.87942 291.968C6.33948 290.28 6.3399 288.551 9.81155 286.777C9.83407 288.504 9.8569 290.241 9.87942 291.968Z" fill="#FF9100"/>
<path d="M-0.368361 147.262C4.42843 156.789 -3.60678 157.863 -8.72047 157.562C-23.1298 156.704 -30.5783 160.62 -28.6295 176.904C-28.2412 180.165 -35.2112 184.263 -35.0648 189.955C-54.8843 191.839 -57.8756 189.079 -52.2101 174.041C-51.6395 172.513 -49.9728 171.381 -49.4701 169.855C-42.66 149.03 -42.6836 149.013 -20.6374 147.763C-13.746 153.039 -7.00945 152.042 -0.368361 147.262Z" fill="#FF9100"/>
</svg>
