<svg width="83" height="55" viewBox="0 0 83 55" fill="none" xmlns="http://www.w3.org/2000/svg">
<path d="M41.4841 54.2954C32.6676 54.2367 23.9614 52.3289 15.9281 48.6954C15.45 48.4821 15.0442 48.1344 14.7601 47.6946C14.4761 47.2548 14.326 46.742 14.3281 46.2184V24.2454C14.3289 23.5253 14.6153 22.835 15.1245 22.3258C15.6337 21.8166 16.324 21.5302 17.0441 21.5294H65.9241C66.6442 21.5302 67.3346 21.8166 67.8438 22.3258C68.3529 22.835 68.6393 23.5253 68.6401 24.2454V46.2224C68.6423 46.746 68.4922 47.2588 68.2082 47.6986C67.9241 48.1384 67.5183 48.4861 67.0401 48.6994V48.6994C59.0066 52.3315 50.3004 54.2379 41.4841 54.2954Z" fill="#FF9100"/>
<path d="M41.4781 36.4915C41.1158 36.4918 40.7572 36.4197 40.4231 36.2795L1.66113 19.9254C1.16102 19.7148 0.735485 19.3591 0.439478 18.9043C0.143471 18.4495 -0.00944996 17.9164 0.00045221 17.3738C0.0103544 16.8312 0.182645 16.3041 0.495051 15.8604C0.807456 15.4166 1.24564 15.0767 1.75311 14.8844L40.5151 0.179446C41.1389 -0.0598153 41.8293 -0.0598153 42.4531 0.179446L80.6961 14.8844C81.2005 15.0785 81.6355 15.4186 81.9455 15.8612C82.2555 16.3038 82.4265 16.8288 82.4365 17.3691C82.4464 17.9094 82.295 18.4404 82.0015 18.8942C81.7081 19.348 81.286 19.7039 80.7891 19.9164L42.5461 36.2705C42.2084 36.4141 41.8451 36.4879 41.4781 36.4874V36.4915Z" fill="#FF9100"/>
<path d="M18.8549 50.1944C20.8547 50.1944 22.4759 48.5732 22.4759 46.5734C22.4759 44.5736 20.8547 42.9524 18.8549 42.9524C16.8551 42.9524 15.2339 44.5736 15.2339 46.5734C15.2339 48.5732 16.8551 50.1944 18.8549 50.1944Z" fill="white"/>
<path opacity="0.2" d="M80.9222 17.5994L42.6792 33.9525C42.3808 34.0792 42.0599 34.1445 41.7357 34.1445C41.4115 34.1445 41.0906 34.0792 40.7922 33.9525L2.03019 17.5994C1.54353 17.3991 1.13749 17.0423 0.876194 16.5854C0.705321 16.8818 0.599419 17.2111 0.565556 17.5515C0.531692 17.8919 0.570644 18.2356 0.679783 18.5598C0.788922 18.884 0.965757 19.1813 1.19858 19.4319C1.43141 19.6825 1.71489 19.8808 2.03019 20.0134L40.7922 36.3664C41.0906 36.4932 41.4115 36.5585 41.7357 36.5585C42.0599 36.5585 42.3808 36.4932 42.6792 36.3664L80.9222 20.0134C81.236 19.8796 81.5178 19.6807 81.7491 19.4299C81.9804 19.1791 82.1558 18.8821 82.2639 18.5585C82.3719 18.2349 82.41 17.8921 82.3758 17.5527C82.3415 17.2132 82.2357 16.8849 82.0652 16.5894C81.8059 17.0429 81.4041 17.3979 80.9222 17.5994V17.5994Z" fill="black"/>
<path d="M19.1583 46.5624C19.3174 46.5624 19.47 46.4992 19.5826 46.3867C19.6951 46.2742 19.7583 46.1216 19.7583 45.9624V25.7625L39.6583 18.5114C39.8184 18.5138 39.9728 18.4525 40.0877 18.341C40.2025 18.2296 40.2684 18.077 40.2708 17.9169C40.2732 17.7569 40.2119 17.6024 40.1004 17.4876C39.9889 17.3727 39.8364 17.3068 39.6763 17.3044L19.7763 24.5555C19.6161 24.5518 19.4569 24.5806 19.3082 24.6403C19.1595 24.6999 19.0245 24.7891 18.9113 24.9025C18.7969 25.0145 18.7062 25.1484 18.6444 25.2961C18.5825 25.4437 18.5509 25.6023 18.5513 25.7625V45.9554C18.5504 46.0354 18.5654 46.1148 18.5956 46.1888C18.6258 46.2629 18.6704 46.3302 18.727 46.3867C18.7836 46.4433 18.8508 46.488 18.9249 46.5182C18.999 46.5483 19.0783 46.5634 19.1583 46.5624V46.5624Z" fill="white"/>
</svg>
