<svg width="99" height="130" viewBox="0 0 99 130" fill="none" xmlns="http://www.w3.org/2000/svg">
<path d="M96.5389 97.5444V128.919H17.9339C8.9779 128.919 1.69092 121.881 1.69092 113.232C1.69092 104.583 8.9779 97.5454 17.9339 97.5454L96.5389 97.5444Z" fill="#F2F2F2"/>
<path d="M98.469 128.677C98.469 128.998 98.3418 129.305 98.1155 129.531C97.8891 129.757 97.5821 129.884 97.262 129.884H16.532C12.1474 129.884 7.94245 128.143 4.8421 125.042C1.74175 121.942 0 117.737 0 113.352C0 108.968 1.74175 104.763 4.8421 101.663C7.94245 98.5622 12.1474 96.8204 16.532 96.8204H97.262C97.576 96.8295 97.874 96.9606 98.0929 97.1859C98.3118 97.4111 98.4343 97.7128 98.4343 98.0269C98.4343 98.341 98.3118 98.6428 98.0929 98.868C97.874 99.0933 97.576 99.2244 97.262 99.2335H16.532C14.6679 99.2178 12.8192 99.5713 11.0925 100.274C9.3658 100.976 7.79529 102.014 6.47162 103.326C5.14794 104.639 4.0973 106.201 3.38031 107.921C2.66332 109.642 2.29416 111.488 2.29416 113.352C2.29416 115.216 2.66332 117.062 3.38031 118.782C4.0973 120.503 5.14794 122.065 6.47162 123.378C7.79529 124.69 9.3658 125.728 11.0925 126.43C12.8192 127.133 14.6679 127.486 16.532 127.47H97.262C97.5821 127.47 97.8891 127.598 98.1155 127.824C98.3418 128.05 98.469 128.357 98.469 128.677Z" fill="#FF9100"/>
<path d="M96.5391 104.785H12.0691C12.0051 104.785 11.9437 104.76 11.8984 104.715C11.8531 104.669 11.8276 104.608 11.8276 104.544C11.8276 104.48 11.8531 104.419 11.8984 104.373C11.9437 104.328 12.0051 104.302 12.0691 104.302H96.5391C96.6032 104.302 96.6646 104.328 96.7099 104.373C96.7552 104.419 96.7806 104.48 96.7806 104.544C96.7806 104.608 96.7552 104.669 96.7099 104.715C96.6646 104.76 96.6032 104.785 96.5391 104.785V104.785Z" fill="#CCCCCC"/>
<path d="M96.5391 110.577H12.0691C12.0051 110.577 11.9437 110.552 11.8984 110.507C11.8531 110.461 11.8276 110.4 11.8276 110.336C11.8276 110.272 11.8531 110.211 11.8984 110.165C11.9437 110.12 12.0051 110.094 12.0691 110.094H96.5391C96.6032 110.094 96.6646 110.12 96.7099 110.165C96.7552 110.211 96.7806 110.272 96.7806 110.336C96.7806 110.4 96.7552 110.461 96.7099 110.507C96.6646 110.552 96.6032 110.577 96.5391 110.577V110.577Z" fill="#CCCCCC"/>
<path d="M96.5391 116.369H12.0691C12.0051 116.369 11.9437 116.344 11.8984 116.299C11.8531 116.253 11.8276 116.192 11.8276 116.128C11.8276 116.064 11.8531 116.003 11.8984 115.957C11.9437 115.912 12.0051 115.886 12.0691 115.886H96.5391C96.6032 115.886 96.6646 115.912 96.7099 115.957C96.7552 116.003 96.7806 116.064 96.7806 116.128C96.7806 116.192 96.7552 116.253 96.7099 116.299C96.6646 116.344 96.6032 116.369 96.5391 116.369V116.369Z" fill="#CCCCCC"/>
<path d="M96.5391 122.162H12.0691C12.0051 122.162 11.9437 122.137 11.8984 122.092C11.8531 122.046 11.8276 121.985 11.8276 121.921C11.8276 121.857 11.8531 121.795 11.8984 121.75C11.9437 121.705 12.0051 121.679 12.0691 121.679H96.5391C96.6032 121.679 96.6646 121.705 96.7099 121.75C96.7552 121.795 96.7806 121.857 96.7806 121.921C96.7806 121.985 96.7552 122.046 96.7099 122.092C96.6646 122.137 96.6032 122.162 96.5391 122.162V122.162Z" fill="#CCCCCC"/>
<path d="M63.7082 94.2475H60.9492L59.6372 83.6055H63.7092L63.7082 94.2475Z" fill="#FFB8B8"/>
<path d="M58.977 93.4585H64.2979V96.8085H55.627C55.627 95.92 55.9799 95.0679 56.6082 94.4397C57.2364 93.8114 58.0885 93.4585 58.977 93.4585V93.4585Z" fill="#2F2E41"/>
<path d="M35.5202 94.2475H32.7612L31.4492 83.6055H35.5212L35.5202 94.2475Z" fill="#FFB8B8"/>
<path d="M30.7899 93.4585H36.1109V96.8085H27.4399C27.4399 95.92 27.7929 95.0679 28.4211 94.4397C29.0494 93.8114 29.9015 93.4585 30.7899 93.4585V93.4585Z" fill="#2F2E41"/>
<path d="M44.7358 15.3065V14.0995C44.7358 13.0775 44.9371 12.0654 45.3283 11.1211C45.7194 10.1768 46.2927 9.31883 47.0154 8.59612C47.7381 7.8734 48.5961 7.30011 49.5404 6.90898C50.4847 6.51785 51.4968 6.31653 52.5188 6.31653V6.31653C54.583 6.31653 56.5627 7.13652 58.0222 8.59612C59.4818 10.0557 60.3018 12.0354 60.3018 14.0995V15.3065C60.3018 16.7947 59.7107 18.2218 58.6584 19.2741C57.6062 20.3264 56.179 20.9175 54.6908 20.9175H50.3468C48.8587 20.9175 47.4315 20.3264 46.3792 19.2741C45.327 18.2218 44.7358 16.7947 44.7358 15.3065V15.3065Z" fill="#2F2E41"/>
<path d="M52.5198 21.3335C55.7937 21.3335 58.4478 18.6795 58.4478 15.4055C58.4478 12.1316 55.7937 9.47754 52.5198 9.47754C49.2459 9.47754 46.5918 12.1316 46.5918 15.4055C46.5918 18.6795 49.2459 21.3335 52.5198 21.3335Z" fill="#FFB8B8"/>
<path d="M20.2772 35.7775C20.5174 35.5502 20.8046 35.3783 21.1184 35.2739C21.4322 35.1695 21.7651 35.1352 22.0936 35.1733C22.4221 35.2114 22.7383 35.3211 23.0198 35.4946C23.3014 35.6681 23.5415 35.9012 23.7232 36.1775L28.8042 35.2165L30.1412 38.1615L22.9462 39.4185C22.4612 39.6933 21.892 39.7805 21.3469 39.6633C20.8018 39.5462 20.3187 39.233 19.9893 38.7832C19.6599 38.3334 19.5072 37.7783 19.5601 37.2233C19.613 36.6683 19.8678 36.152 20.2762 35.7725L20.2772 35.7775Z" fill="#FFB8B8"/>
<path d="M47.8981 25.0655L47.9641 25.1655L39.6311 30.6545L25.5711 35.1445C25.3852 35.2044 25.2257 35.3267 25.1197 35.4907C25.0136 35.6547 24.9675 35.8504 24.9891 36.0445L25.2961 38.6865C25.3097 38.8034 25.3475 38.9163 25.4072 39.0177C25.4669 39.1192 25.5472 39.2071 25.6428 39.2757C25.7385 39.3443 25.8475 39.3922 25.9627 39.4163C26.078 39.4404 26.197 39.4401 26.3121 39.4155L39.5451 36.5795C40.1855 36.4431 40.791 36.1766 41.3241 35.7965L50.6851 29.1365C51.2118 28.7757 51.5736 28.2204 51.6909 27.5928C51.8082 26.9652 51.6714 26.3167 51.3106 25.79C50.9498 25.2633 50.3945 24.9015 49.7669 24.7842C49.1393 24.6669 48.4908 24.8036 47.9641 25.1645L47.8981 25.0655Z" fill="#D67E09"/>
<path d="M60.9978 91.2275C60.7857 91.2278 60.5782 91.1663 60.4006 91.0505C60.223 90.9347 60.083 90.7696 59.9978 90.5755L47.3488 59.3215C47.3193 59.2536 47.2697 59.1965 47.2067 59.1577C47.1437 59.1188 47.0704 59.1003 46.9965 59.1044C46.9227 59.1085 46.8519 59.1352 46.7936 59.1808C46.7354 59.2264 46.6925 59.2888 46.6708 59.3595L36.3528 89.7855C36.3095 89.9272 36.2376 90.0586 36.1416 90.1716C36.0456 90.2845 35.9275 90.3766 35.7946 90.4422C35.6616 90.5078 35.5167 90.5454 35.3687 90.5529C35.2206 90.5603 35.0726 90.5374 34.9338 90.4855L31.4738 89.1855C31.2858 89.1158 31.1208 88.9954 30.9972 88.8376C30.8736 88.6797 30.7963 88.4907 30.7738 88.2915C29.2168 74.7295 42.7928 40.4985 42.9298 40.1535L42.9678 40.0535L55.3428 42.7915L55.3688 42.8195C60.3058 48.2055 64.3688 82.1785 65.1278 88.9345C65.1563 89.1785 65.1008 89.425 64.9705 89.6334C64.8402 89.8417 64.6428 89.9994 64.4108 90.0805L61.3558 91.1605C61.2411 91.203 61.12 91.2257 60.9978 91.2275V91.2275Z" fill="#374B5C"/>
<path d="M50.3349 43.8984C47.3349 43.8984 43.9939 43.2985 42.9649 40.8335L42.9408 40.7764L42.9729 40.7234C43.7849 39.3904 44.8588 37.1174 44.2818 36.6914C43.6875 36.1977 43.2261 35.5631 42.9399 34.8454C42.6536 34.1277 42.5515 33.3497 42.6428 32.5824C42.7263 30.5428 43.4382 28.5788 44.6811 26.9594C45.924 25.34 47.6371 24.1445 49.5859 23.5364V23.5364C50.7152 23.1751 51.8644 22.8793 53.0278 22.6504C53.8761 22.4793 54.7518 22.4981 55.5919 22.7056C56.432 22.9131 57.2158 23.3041 57.8869 23.8505C58.5672 24.3999 59.1173 25.0932 59.4977 25.8806C59.8781 26.6681 60.0793 27.53 60.0868 28.4044C60.1288 32.7804 59.4559 38.8744 56.0049 43.0584C55.8434 43.2527 55.6185 43.3837 55.3699 43.4284C53.7081 43.7289 52.0235 43.8862 50.3349 43.8984Z" fill="#D67E09"/>
<path d="M49.2202 43.7374C49.3834 43.152 49.7711 42.6547 50.2989 42.3536C50.8268 42.0525 51.4522 41.9719 52.0392 42.1294C52.1588 42.1628 52.2756 42.2059 52.3882 42.2584L56.2462 38.7474L58.9292 40.5554L53.4112 45.4384C53.1623 45.888 52.7701 46.2413 52.297 46.4419C51.824 46.6425 51.2973 46.679 50.8012 46.5454C50.5121 46.4662 50.2417 46.3305 50.0055 46.1461C49.7692 45.9618 49.5719 45.7324 49.4249 45.4713C49.2779 45.2101 49.1841 44.9225 49.1489 44.6248C49.1138 44.3272 49.138 44.0256 49.2202 43.7374V43.7374Z" fill="#FFB8B8"/>
<path d="M55.6351 43.7795C55.3846 43.7797 55.1418 43.6931 54.9481 43.5345L53.4271 42.2915C53.3007 42.1878 53.1994 42.057 53.1306 41.9087C53.0619 41.7605 53.0274 41.5986 53.0299 41.4352C53.0324 41.2718 53.0718 41.111 53.145 40.9649C53.2183 40.8189 53.3236 40.6912 53.4531 40.5915L59.8351 35.6975C59.9108 35.6391 59.9603 35.5532 59.973 35.4584C59.9858 35.3637 59.9607 35.2678 59.9031 35.1915L55.9641 29.9845C55.5065 29.3816 55.2769 28.6362 55.3161 27.8804C55.3553 27.1245 55.6606 26.4069 56.178 25.8545V25.8545C56.7235 25.2664 57.4699 24.9046 58.2694 24.8407C59.0689 24.7768 59.8632 25.0155 60.4951 25.5095L60.5201 25.5355L64.6331 31.4245C65.0777 31.7732 65.4358 32.2201 65.6793 32.7301C65.9227 33.2401 66.045 33.7995 66.0366 34.3645C66.0282 34.9296 65.8893 35.4851 65.6307 35.9876C65.3722 36.4901 65.001 36.9261 64.5461 37.2615L56.2811 43.5695C56.0937 43.7066 55.8673 43.7802 55.6351 43.7795V43.7795Z" fill="#D67E09"/>
<path d="M47.2691 13.7375V10.7995L52.5201 8.50647L57.526 10.7995V13.7405C57.526 13.8686 57.4752 13.9914 57.3846 14.082C57.294 14.1726 57.1712 14.2235 57.0431 14.2235H47.751C47.6874 14.2233 47.6245 14.2106 47.5658 14.1861C47.5072 14.1616 47.4539 14.1257 47.4091 14.0806C47.3643 14.0354 47.3289 13.9819 47.3048 13.923C47.2808 13.8641 47.2687 13.8011 47.2691 13.7375V13.7375Z" fill="#2F2E41"/>
<path d="M52.2782 6.70648C51.9771 5.44431 52.1392 4.116 52.7349 2.96325C53.3307 1.81051 54.3204 0.909955 55.5242 0.425473C56.7489 -0.00654474 58.0652 -0.111836 59.343 0.119992C60.6209 0.35182 61.8163 0.912765 62.8112 1.74748C64.7854 3.45353 66.1659 5.74319 66.7532 8.28547C67.3294 10.8126 67.6358 13.3937 67.6672 15.9855C68.7814 16.1901 69.7976 16.755 70.5597 17.5932C71.3218 18.4315 71.7875 19.4968 71.8854 20.6254C71.9833 21.754 71.708 22.8836 71.1016 23.8406C70.4953 24.7975 69.5915 25.5289 68.5292 25.9224C67.4668 26.3159 66.3047 26.3497 65.2212 26.0186C64.1378 25.6875 63.1931 25.0098 62.5322 24.0897C61.8712 23.1696 61.5307 22.058 61.5629 20.9255C61.595 19.7931 61.9981 18.7026 62.7102 17.8215C63.6007 16.7196 64.0981 15.3521 64.1236 13.9357C64.1492 12.5192 63.7015 11.1347 62.8514 10.0014C62.0013 8.86806 60.7973 8.05076 59.4303 7.67892C58.0632 7.30708 56.6112 7.40193 55.3042 7.94847C53.8532 8.55147 52.0312 6.97448 52.2782 6.70648Z" fill="#2F2E41"/>
<path d="M19.1881 24.3685C15.6625 24.3454 12.1808 23.583 8.96815 22.1305C8.77694 22.0453 8.61462 21.9064 8.50099 21.7306C8.38735 21.5549 8.32729 21.3498 8.32813 21.1405V12.3515C8.3284 12.0636 8.44292 11.7875 8.64652 11.5839C8.85013 11.3803 9.12619 11.2658 9.41413 11.2655H28.9631C29.2511 11.2658 29.5272 11.3803 29.7308 11.5839C29.9344 11.7875 30.0489 12.0636 30.0491 12.3515V21.1405C30.05 21.3498 29.9899 21.5549 29.8763 21.7306C29.7627 21.9064 29.6004 22.0453 29.4092 22.1305V22.1305C26.1962 23.5832 22.7142 24.3456 19.1881 24.3685V24.3685Z" fill="#FF9100"/>
<path d="M19.185 17.2485C19.04 17.2486 18.8966 17.2197 18.763 17.1636L3.26297 10.6235C3.06306 10.5392 2.89301 10.3969 2.77472 10.215C2.65643 10.0331 2.59532 9.81997 2.5993 9.60303C2.60329 9.3861 2.67217 9.17532 2.79706 8.99789C2.92194 8.82045 3.09712 8.6845 3.29999 8.60755L18.8 2.72655C19.0495 2.63086 19.3255 2.63086 19.575 2.72655L34.869 8.60755C35.0706 8.68516 35.2445 8.82116 35.3685 8.99814C35.4924 9.17513 35.5607 9.38507 35.5647 9.6011C35.5687 9.81712 35.5081 10.0294 35.3907 10.2109C35.2734 10.3923 35.1046 10.5346 34.906 10.6195L19.611 17.1596C19.4764 17.2176 19.3315 17.2479 19.185 17.2485V17.2485Z" fill="#FF9100"/>
<path d="M10.137 22.7285C10.9367 22.7285 11.585 22.0802 11.585 21.2805C11.585 20.4808 10.9367 19.8325 10.137 19.8325C9.33726 19.8325 8.68896 20.4808 8.68896 21.2805C8.68896 22.0802 9.33726 22.7285 10.137 22.7285Z" fill="white"/>
<path opacity="0.2" d="M34.9601 9.69249L19.6651 16.2325C19.5457 16.2832 19.4173 16.3093 19.2876 16.3093C19.1578 16.3093 19.0295 16.2832 18.9101 16.2325L3.41006 9.69249C3.21518 9.61233 3.0526 9.46946 2.94806 9.2865C2.87979 9.40506 2.83751 9.53678 2.82403 9.67293C2.81055 9.80908 2.82618 9.94654 2.86987 10.0762C2.91356 10.2058 2.98432 10.3247 3.07745 10.4249C3.17058 10.5252 3.28396 10.6044 3.41006 10.6575L18.9101 17.1975C19.0294 17.2482 19.1578 17.2744 19.2876 17.2744C19.4173 17.2744 19.5457 17.2482 19.6651 17.1975L34.9601 10.6575C35.0855 10.6039 35.1981 10.5243 35.2905 10.4241C35.3829 10.3238 35.453 10.205 35.4962 10.0757C35.5394 9.94633 35.5547 9.8093 35.541 9.67361C35.5274 9.53793 35.4851 9.40667 35.4171 9.2885C35.3134 9.46983 35.1528 9.61185 34.9601 9.69249V9.69249Z" fill="black"/>
<path d="M10.2581 21.2756C10.2898 21.2756 10.3211 21.2693 10.3504 21.2572C10.3796 21.2451 10.4062 21.2274 10.4285 21.205C10.4509 21.1826 10.4687 21.156 10.4808 21.1268C10.4929 21.0975 10.4991 21.0662 10.4991 21.0346V12.9586L18.4591 10.0586C18.4908 10.059 18.5223 10.0532 18.5518 10.0415C18.5813 10.0298 18.6081 10.0124 18.6309 9.9903C18.6536 9.9682 18.6718 9.94183 18.6844 9.9127C18.697 9.88358 18.7037 9.85227 18.7041 9.82056C18.7046 9.78884 18.6988 9.75735 18.6871 9.72787C18.6754 9.6984 18.658 9.67151 18.6359 9.64876C18.6138 9.62601 18.5874 9.60784 18.5583 9.59528C18.5291 9.58271 18.4978 9.57602 18.4661 9.57556L10.5061 12.4756C10.442 12.4741 10.3783 12.4856 10.3189 12.5095C10.2594 12.5334 10.2053 12.5692 10.1601 12.6146C10.1143 12.6594 10.078 12.7129 10.0533 12.772C10.0285 12.8311 10.0159 12.8945 10.0161 12.9586V21.0326C10.0159 21.0645 10.0219 21.0961 10.034 21.1256C10.046 21.1552 10.0638 21.182 10.0863 21.2046C10.1089 21.2272 10.1356 21.2451 10.1651 21.2573C10.1946 21.2695 10.2262 21.2757 10.2581 21.2756V21.2756Z" fill="white"/>
</svg>
