<svg width="336" height="74" viewBox="0 0 336 74" fill="none" xmlns="http://www.w3.org/2000/svg">
<path d="M208.755 69.567C206.499 69.567 204.336 68.671 202.741 67.0762C201.147 65.4814 200.251 63.3183 200.251 61.0629C200.251 58.8075 201.147 56.6445 202.741 55.0497C204.336 53.4549 206.499 52.559 208.755 52.559H335.068C334.432 51.3926 333.495 50.4189 332.353 49.7402C331.211 49.0615 329.908 48.7028 328.58 48.7019H77.5037C74.2448 48.7312 71.1293 50.0464 68.8351 52.3613C66.541 54.6761 65.2539 57.8034 65.2539 61.0624C65.2539 64.3215 66.541 67.4488 68.8351 69.7636C71.1293 72.0785 74.2448 73.3936 77.5037 73.4229H328.581C329.909 73.422 331.212 73.0633 332.354 72.3846C333.496 71.7059 334.433 70.7323 335.069 69.5659L208.755 69.567Z" fill="#FFB24D"/>
<path d="M335.235 57.2459H215.141C214.957 57.2459 214.78 57.1728 214.65 57.0426C214.52 56.9125 214.447 56.7359 214.447 56.5519C214.447 56.3678 214.52 56.1913 214.65 56.0612C214.78 55.931 214.957 55.8579 215.141 55.8579H335.235C335.419 55.8579 335.595 55.931 335.726 56.0612C335.856 56.1913 335.929 56.3678 335.929 56.5519C335.929 56.7359 335.856 56.9125 335.726 57.0426C335.595 57.1728 335.419 57.2459 335.235 57.2459V57.2459Z" fill="#CCCCCC"/>
<path d="M335.235 61.7581H215.141C214.957 61.7581 214.78 61.685 214.65 61.5549C214.52 61.4247 214.447 61.2482 214.447 61.0641C214.447 60.8801 214.52 60.7036 214.65 60.5734C214.78 60.4433 214.957 60.3701 215.141 60.3701H335.235C335.419 60.3701 335.595 60.4433 335.726 60.5734C335.856 60.7036 335.929 60.8801 335.929 61.0641C335.929 61.2482 335.856 61.4247 335.726 61.5549C335.595 61.685 335.419 61.7581 335.235 61.7581V61.7581Z" fill="#CCCCCC"/>
<path d="M335.235 66.2691H215.141C214.957 66.2691 214.78 66.1959 214.65 66.0658C214.52 65.9356 214.447 65.7591 214.447 65.5751C214.447 65.391 214.52 65.2145 214.65 65.0844C214.78 64.9542 214.957 64.8811 215.141 64.8811H335.235C335.419 64.8811 335.595 64.9542 335.726 65.0844C335.856 65.2145 335.929 65.391 335.929 65.5751C335.929 65.7591 335.856 65.9356 335.726 66.0658C335.595 66.1959 335.419 66.2691 335.235 66.2691V66.2691Z" fill="#CCCCCC"/>
<path d="M176.128 45.6169C173.872 45.6169 171.709 44.721 170.115 43.1262C168.52 41.5314 167.624 39.3683 167.624 37.1129C167.624 34.8575 168.52 32.6945 170.115 31.0997C171.709 29.5049 173.872 28.6089 176.128 28.6089H302.441C301.806 27.4427 300.868 26.469 299.727 25.7903C298.585 25.1116 297.282 24.7529 295.954 24.752H44.8738C41.6149 24.7813 38.4994 26.0964 36.2053 28.4113C33.9111 30.7261 32.624 33.8533 32.624 37.1124C32.624 40.3715 33.9111 43.4987 36.2053 45.8136C38.4994 48.1285 41.6149 49.4436 44.8738 49.4729H295.953C297.281 49.4718 298.584 49.1131 299.726 48.4344C300.867 47.7557 301.805 46.7821 302.44 45.6159L176.128 45.6169Z" fill="#EE8D0E"/>
<path d="M302.608 33.295H182.514C182.33 33.295 182.153 33.2219 182.023 33.0917C181.893 32.9616 181.82 32.7851 181.82 32.601C181.82 32.417 181.893 32.2404 182.023 32.1103C182.153 31.9801 182.33 31.907 182.514 31.907H302.608C302.792 31.907 302.968 31.9801 303.099 32.1103C303.229 32.2404 303.302 32.417 303.302 32.601C303.302 32.7851 303.229 32.9616 303.099 33.0917C302.968 33.2219 302.792 33.295 302.608 33.295V33.295Z" fill="#CCCCCC"/>
<path d="M302.608 37.8069H182.514C182.33 37.8069 182.153 37.7338 182.023 37.6037C181.893 37.4735 181.82 37.297 181.82 37.1129C181.82 36.9289 181.893 36.7523 182.023 36.6222C182.153 36.492 182.33 36.4189 182.514 36.4189H302.608C302.792 36.4189 302.968 36.492 303.099 36.6222C303.229 36.7523 303.302 36.9289 303.302 37.1129C303.302 37.297 303.229 37.4735 303.099 37.6037C302.968 37.7338 302.792 37.8069 302.608 37.8069V37.8069Z" fill="#CCCCCC"/>
<path d="M302.608 42.3199H182.514C182.33 42.3199 182.153 42.2468 182.023 42.1166C181.893 41.9865 181.82 41.81 181.82 41.6259C181.82 41.4419 181.893 41.2653 182.023 41.1352C182.153 41.005 182.33 40.9319 182.514 40.9319H302.608C302.792 40.9319 302.968 41.005 303.099 41.1352C303.229 41.2653 303.302 41.4419 303.302 41.6259C303.302 41.81 303.229 41.9865 303.099 42.1166C302.968 42.2468 302.792 42.3199 302.608 42.3199V42.3199Z" fill="#CCCCCC"/>
<path d="M143.505 20.865C141.249 20.865 139.086 19.969 137.492 18.3742C135.897 16.7794 135.001 14.6164 135.001 12.361C135.001 10.1056 135.897 7.94259 137.492 6.34778C139.086 4.75297 141.249 3.85699 143.505 3.85699H269.814C269.179 2.6908 268.241 1.71723 267.099 1.03854C265.958 0.359856 264.655 0.00110302 263.327 0H12.2498C8.99087 0.0293133 5.87537 1.3445 3.58124 3.65936C1.28711 5.97422 0 9.10142 0 12.3605C0 15.6196 1.28711 18.7468 3.58124 21.0616C5.87537 23.3765 8.99087 24.6917 12.2498 24.721H263.327C264.655 24.7199 265.958 24.3612 267.099 23.6825C268.241 23.0038 269.179 22.0302 269.814 20.864L143.505 20.865Z" fill="#FF9200"/>
<path d="M269.982 8.54816H149.888C149.704 8.54816 149.527 8.47503 149.397 8.34488C149.267 8.21473 149.194 8.03822 149.194 7.85416C149.194 7.6701 149.267 7.49355 149.397 7.3634C149.527 7.23325 149.704 7.16016 149.888 7.16016H269.982C270.166 7.16016 270.342 7.23325 270.473 7.3634C270.603 7.49355 270.676 7.6701 270.676 7.85416C270.676 8.03822 270.603 8.21473 270.473 8.34488C270.342 8.47503 270.166 8.54816 269.982 8.54816V8.54816Z" fill="#CCCCCC"/>
<path d="M269.982 13.0599H149.888C149.704 13.0599 149.527 12.9868 149.397 12.8566C149.267 12.7265 149.194 12.55 149.194 12.3659C149.194 12.1818 149.267 12.0053 149.397 11.8752C149.527 11.745 149.704 11.6719 149.888 11.6719H269.982C270.166 11.6719 270.342 11.745 270.473 11.8752C270.603 12.0053 270.676 12.1818 270.676 12.3659C270.676 12.55 270.603 12.7265 270.473 12.8566C270.342 12.9868 270.166 13.0599 269.982 13.0599V13.0599Z" fill="#CCCCCC"/>
<path d="M269.982 17.571H149.888C149.704 17.571 149.527 17.4979 149.397 17.3678C149.267 17.2376 149.194 17.0611 149.194 16.8771C149.194 16.693 149.267 16.5165 149.397 16.3864C149.527 16.2562 149.704 16.1831 149.888 16.1831H269.982C270.166 16.1831 270.342 16.2562 270.473 16.3864C270.603 16.5165 270.676 16.693 270.676 16.8771C270.676 17.0611 270.603 17.2376 270.473 17.3678C270.342 17.4979 270.166 17.571 269.982 17.571V17.571Z" fill="#CCCCCC"/>
</svg>
