<svg width="61" height="50" viewBox="0 0 61 50" fill="none" xmlns="http://www.w3.org/2000/svg">
<g opacity="0.45">
<path opacity="0.45" d="M41.7901 27.445C43.2077 27.8587 44.6763 28.0721 46.153 28.079C48.0331 28.0849 49.8944 27.704 51.621 26.96C50.248 31.994 46.944 40.677 40.366 41.654C40.0676 41.6988 39.7884 41.8289 39.5622 42.0287C39.336 42.2284 39.1723 42.4894 39.091 42.78L37.654 47.921C37.5936 48.1359 37.58 48.3613 37.6142 48.5818C37.6484 48.8024 37.7295 49.0131 37.8521 49.1996C37.9746 49.3862 38.1358 49.5443 38.3247 49.6632C38.5136 49.7821 38.7258 49.8591 38.947 49.889C39.4345 49.9559 39.926 49.9893 40.418 49.989C48.318 49.989 56.1341 41.748 59.4331 29.947C61.3701 23.024 61.933 12.613 57.169 6.06301C54.496 2.39502 50.603 0.440002 45.59 0.242001H45.529C42.1829 0.245762 38.9512 1.46001 36.4304 3.66052C33.9097 5.86103 32.2702 8.8992 31.8146 12.2141C31.3591 15.5291 32.1182 18.8969 33.9519 21.6958C35.7856 24.4947 38.57 26.5358 41.791 27.442L41.7901 27.445Z" fill="#D67E09"/>
<path opacity="0.45" d="M3.07197 20.9C4.8777 24.0953 7.8728 26.4478 11.405 27.445C12.8217 27.8585 14.2892 28.0719 15.765 28.079C17.6461 28.085 19.5083 27.7041 21.236 26.96C19.861 31.994 16.559 40.677 9.98096 41.654C9.68236 41.6984 9.40304 41.8284 9.17677 42.0282C8.95049 42.2281 8.78692 42.4892 8.70594 42.78L7.26997 47.921C7.20958 48.1357 7.19588 48.3608 7.22987 48.5812C7.26385 48.8016 7.34474 49.0122 7.46699 49.1987C7.58924 49.3852 7.75006 49.5433 7.93861 49.6624C8.12715 49.7815 8.339 49.8587 8.55994 49.889C9.04741 49.9559 9.53891 49.9894 10.031 49.989C17.931 49.989 25.747 41.748 29.048 29.947C30.986 23.024 31.553 12.613 26.781 6.06301C24.111 2.39502 20.215 0.437 15.202 0.242001H15.1409C12.7217 0.243633 10.345 0.878483 8.24714 2.08343C6.1493 3.28838 4.40338 5.02145 3.18299 7.11035C1.9626 9.19924 1.31026 11.5712 1.29078 13.9904C1.2713 16.4096 1.88538 18.7917 3.07197 20.9Z" fill="#D67E09"/>
</g>
</svg>
